<svg id="Group_256" data-name="Group 256" xmlns="http://www.w3.org/2000/svg" width="34.864" height="34.862" viewBox="0 0 34.864 34.862">
  <g id="Group_255" data-name="Group 255">
    <path id="Path_209" data-name="Path 209" d="M34.865,13.377c0-.012-.006-.023-.007-.034a.554.554,0,0,0-.024-.119.6.6,0,0,0-.033-.1.561.561,0,0,0-.058-.087.571.571,0,0,0-.079-.092c-.009-.008-.013-.019-.023-.027l-5.586-4.34V4.08a1.743,1.743,0,0,0-1.743-1.743h-6.3L18.492.379a1.724,1.724,0,0,0-2.119,0L13.851,2.337h-6.3A1.743,1.743,0,0,0,5.811,4.08v4.5L.225,12.918c-.01.008-.014.019-.023.027a.571.571,0,0,0-.079.092.556.556,0,0,0-.058.087.573.573,0,0,0-.033.1.551.551,0,0,0-.024.116c0,.012-.007.022-.007.034V33.133a1.722,1.722,0,0,0,.1.549.576.576,0,0,0,.639.872,1.731,1.731,0,0,0,1.006.322H33.122a1.731,1.731,0,0,0,1.009-.327.573.573,0,0,0,.637-.867,1.724,1.724,0,0,0,.1-.549V13.377ZM17.084,1.3a.557.557,0,0,1,.693,0l1.341,1.041h-3.37ZM1.888,33.715l15.2-11.8a.559.559,0,0,1,.693,0l15.2,11.8ZM33.7,32.807,18.491,20.993a1.723,1.723,0,0,0-2.117,0L1.162,32.807V14.262l9.522,7.394a.581.581,0,0,0,.712-.919L1.723,13.225l4.088-3.176v4.49a.581.581,0,1,0,1.162,0V4.08A.581.581,0,0,1,7.554,3.5H27.311a.581.581,0,0,1,.581.581V14.539a.581.581,0,1,0,1.162,0v-4.49l4.088,3.176-9.691,7.525a.581.581,0,0,0,.713.918L33.7,14.262Z" transform="translate(-0.001 -0.015)" fill="#fff"/>
    <path id="Path_210" data-name="Path 210" d="M162.706,95.006h11.621a.581.581,0,1,0,0-1.162H162.706a.581.581,0,1,0,0,1.162Z" transform="translate(-151.085 -87.455)" fill="#fff"/>
    <path id="Path_211" data-name="Path 211" d="M174.909,145.625a.581.581,0,0,0-.581-.581H162.706a.581.581,0,1,0,0,1.162h11.621A.581.581,0,0,0,174.909,145.625Z" transform="translate(-151.085 -135.168)" fill="#fff"/>
    <path id="Path_212" data-name="Path 212" d="M262.384,196.825a.581.581,0,0,0-.581-.581h-5.23a.581.581,0,1,0,0,1.162h5.23A.581.581,0,0,0,262.384,196.825Z" transform="translate(-238.56 -182.882)" fill="#fff"/>
  </g>
</svg>
