<svg id="Group_269" data-name="Group 269" xmlns="http://www.w3.org/2000/svg" width="34.134" height="34.134" viewBox="0 0 34.134 34.134">
  <g id="Group_268" data-name="Group 268">
    <path id="Path_220" data-name="Path 220" d="M33.11,20.025a16.71,16.71,0,0,0,.284-2.9A16.243,16.243,0,0,0,17.181.91a16.71,16.71,0,0,0-2.9.284A9.49,9.49,0,0,0,9.614,0a9.633,9.633,0,0,0-8.42,14.279,16.71,16.71,0,0,0-.284,2.9A16.243,16.243,0,0,0,17.124,33.394a16.71,16.71,0,0,0,2.9-.284,9.594,9.594,0,0,0,4.665,1.024,9.349,9.349,0,0,0,9.444-9.444A9.594,9.594,0,0,0,33.11,20.025ZM24.69,33a8.609,8.609,0,0,1-4.267-.967l-.171-.114-.228.057a16.71,16.71,0,0,1-2.9.284A15.1,15.1,0,0,1,2.048,17.181a16.71,16.71,0,0,1,.284-2.9l.057-.228-.114-.171A8.711,8.711,0,0,1,1.138,9.614,8.5,8.5,0,0,1,9.614,1.138a8.71,8.71,0,0,1,4.267,1.138l.171.114.228-.057a16.71,16.71,0,0,1,2.9-.284A15.1,15.1,0,0,1,32.257,17.124a16.71,16.71,0,0,1-.284,2.9l-.057.228.114.171A8.609,8.609,0,0,1,33,24.69,8.208,8.208,0,0,1,24.69,33Z" transform="translate(0 0)" fill="#fff"/>
    <path id="Path_221" data-name="Path 221" d="M123.208,97.166c-4.267-.853-4.893-1.934-4.949-2.219a.961.961,0,0,1,.455-.967,5.524,5.524,0,0,1,4.039-.853,2.584,2.584,0,0,1,1.764,1.081c.967,1.877,1.991,3.357,4.1,2.845a2.334,2.334,0,0,0,1.536-1.308,3.769,3.769,0,0,0-.114-3.129c-.569-1.081-3.015-3.869-7.794-3.869-4.551,0-9.785,1.65-9.785,6.315,0,3.7,3.243,6.315,8.875,7.111,2.845.4,3.755,1.308,4.039,1.82a1.287,1.287,0,0,1,.057,1.024c-.455,1.081-1.991,2.1-4.381,1.877a4.617,4.617,0,0,1-3.812-3.243,2.617,2.617,0,0,0-2.788-1.593,2.855,2.855,0,0,0-1.877,1.195,3.24,3.24,0,0,0-.171,2.958c.626,1.934,2.731,5.12,9.728,5.12,5.86,0,9.387-3.7,9.444-7.111C131.571,100.465,129.011,98.3,123.208,97.166Zm-1.138,13.028c-4.665,0-7.737-1.536-8.647-4.324a2.158,2.158,0,0,1,.057-1.991,1.68,1.68,0,0,1,1.081-.683h.171c.341,0,1.195.057,1.308.74a5.81,5.81,0,0,0,4.779,4.039c3.015.284,4.949-1.138,5.575-2.617a2.351,2.351,0,0,0-.114-2.048c-.455-.853-1.707-1.934-4.836-2.389-2.958-.455-7.908-1.764-7.908-5.973,0-3.812,4.665-5.177,8.647-5.177,4.21,0,6.315,2.333,6.77,3.243a2.848,2.848,0,0,1,.057,2.162,1.056,1.056,0,0,1-.8.683c-1.024.228-1.65,0-2.845-2.276a3.5,3.5,0,0,0-2.56-1.65A6.643,6.643,0,0,0,117.8,93.07a2.164,2.164,0,0,0-.8,2.1c.4,1.365,2.276,2.333,5.86,3.015,6.542,1.308,7.453,3.7,7.453,5.917C130.319,107.065,127.247,110.194,122.07,110.194Z" transform="translate(-104.662 -82.829)" fill="#fff"/>
  </g>
</svg>
