<svg id="Group_263" data-name="Group 263" xmlns="http://www.w3.org/2000/svg" width="42.326" height="39.968" viewBox="0 0 42.326 39.968">
  <g id="Group_262" data-name="Group 262">
    <path id="Path_217" data-name="Path 217" d="M42.326,40.138a11.309,11.309,0,0,0-4.173-8.687.663.663,0,0,0-.858,1.011A10.005,10.005,0,0,1,41,40.138,10.179,10.179,0,0,1,36.682,48.3a.663.663,0,0,0-.253.676l.718,3.231-3.405-2.043a.663.663,0,0,0-.55-.061,13.435,13.435,0,0,1-4.253.682c-6.651,0-12.062-4.777-12.062-10.648S22.289,29.49,28.939,29.49A13.27,13.27,0,0,1,35.129,31a.663.663,0,0,0,.62-1.171,14.6,14.6,0,0,0-6.809-1.662h-.088c.028-.328.043-.659.043-.988,0-7.122-6.481-12.916-14.447-12.916S0,20.056,0,27.178A11.668,11.668,0,0,0,.828,31.5.663.663,0,1,0,2.06,31.01a10.347,10.347,0,0,1-.735-3.832c0-6.391,5.886-11.59,13.122-11.59s13.122,5.2,13.122,11.59a10.422,10.422,0,0,1-.054,1.055c-6.193.588-11.137,4.968-11.869,10.487-.4.032-.8.049-1.2.049a14.426,14.426,0,0,1-6.768-1.66.663.663,0,0,0-.624,0L4.02,38.727l1.072-2.86a.663.663,0,0,0-.169-.718,11.957,11.957,0,0,1-1.672-1.926.663.663,0,0,0-1.089.756A13.2,13.2,0,0,0,3.7,35.81l-1.536,4.1a.668.668,0,0,0,.932.817l4.277-2.281a15.794,15.794,0,0,0,7.075,1.652c.368,0,.738-.013,1.106-.038,0,.027,0,.054,0,.082,0,6.6,6.005,11.973,13.387,11.973a14.782,14.782,0,0,0,4.379-.656l4.47,2.682a.668.668,0,0,0,.988-.712L37.815,49.1A11.434,11.434,0,0,0,42.326,40.138Z" transform="translate(0 -14.262)" fill="#fff"/>
  </g>
</svg>
