<svg id="Group_257" data-name="Group 257" xmlns="http://www.w3.org/2000/svg" width="35" height="35" viewBox="0 0 35 35">
  <path id="Path_213" data-name="Path 213" d="M17.5,0A17.5,17.5,0,0,0,2.65,26.763c-.691,2.422-1.94,7-1.953,7.05a.673.673,0,0,0,.847.82L8.481,32.5A17.5,17.5,0,1,0,17.5,0Zm0,33.654A16.113,16.113,0,0,1,8.931,31.2a.673.673,0,0,0-.357-.1.684.684,0,0,0-.2.03L2.319,32.988c.445-1.624,1.245-4.529,1.708-6.145a.675.675,0,0,0-.082-.553A16.155,16.155,0,1,1,17.5,33.654Z" fill="#fff"/>
  <path id="Path_214" data-name="Path 214" d="M31.985,24.819c-1.243-.69-2.3-1.382-3.073-1.887-.59-.385-1.016-.663-1.328-.82a1.529,1.529,0,0,0-1.786.127.673.673,0,0,0-.084.1,9.462,9.462,0,0,1-2.437,2.731,16.207,16.207,0,0,1-4.138-2.68c-1.9-1.585-3.1-3.1-3.275-4.137,1.22-1.256,1.66-2.046,1.66-2.945,0-.927-2.162-4.8-2.553-5.187S13.7,9.671,12.344,9.94a.68.68,0,0,0-.344.184c-.164.164-3.991,4.065-2.172,8.794,2,5.19,7.12,11.223,13.653,12.2a14.157,14.157,0,0,0,2.09.166c3.843,0,6.112-1.934,6.75-5.77A.67.67,0,0,0,31.985,24.819Zm-8.3,4.971c-6.908-1.036-11.26-7.88-12.6-11.355-1.326-3.446,1.119-6.519,1.733-7.213a5.077,5.077,0,0,1,1.245-.086,24.173,24.173,0,0,1,2.115,4.176c0,.353-.115.845-1.485,2.216a.67.67,0,0,0-.2.476c0,3.524,7.433,8.413,8.75,8.413,1.145,0,2.638-1.924,3.488-3.178a.638.638,0,0,1,.25.078c.242.122.662.4,1.193.743.7.458,1.633,1.067,2.733,1.7C30.41,28.16,29.014,30.591,23.682,29.79Z" transform="translate(-3.053 -3.196)" fill="#fff"/>
</svg>
